# xmcd
#
# Track frame offsets:
#	150
#	15244
#	28969
#	40578
#	55919
#	60584
#	72430
#	101914
#	119342
#	124009
#	156411
#	176613
#	194595
#
# Disc length: 2775 seconds
#
# Revision: 0
# Processed by: cddbd v1.5.2PL0 Copyright (c) Steve Scherf et al.
# Submitted via: EZCDAudioConverter 2.1.7.1
#
DISCID=b60ad50d
DTITLE=Parquet Courts - Sunbathing Animal
DYEAR=1900
DGENRE=
TTITLE0=Bodies Made Of
TTITLE1=Black And White
TTITLE2=Dear Ramona
TTITLE3=What Color Is Blood?
TTITLE4=Vienna II
TTITLE5=Always Back In Town
TTITLE6=She's Rolling
TTITLE7=Sunbathing Animal
TTITLE8=Up All Night
TTITLE9=Instant Disassembly
TTITLE10=Ducking and Dodging
TTITLE11=Raw Milk
TTITLE12=Into The Garden
EXTD=
EXTT0=
EXTT1=
EXTT2=
EXTT3=
EXTT4=
EXTT5=
EXTT6=
EXTT7=
EXTT8=
EXTT9=
EXTT10=
EXTT11=
EXTT12=
PLAYORDER=
